# xmcd CD database file
#
# Track frame offsets:
#	150
#	12955
#	31335
#	50807
#	73400
#	86152
#	101160
#	120365
#	142322
#	159512
#	178635
#	202190
#
# Disc length: 2981 seconds
#
# Revision: 1
# Processed by: cddbd v1.5.2PL0 Copyright (c) Steve Scherf et al.
# Submitted via: jetAudio 7
#
DISCID=b50ba30c
DTITLE=五月天 - 人生海海
DYEAR=2001
DGENRE=Pop
TTITLE0=the apple
TTITLE1=don't tell me
TTITLE2=will you?
TTITLE3=faith
TTITLE4=ok la!
TTITLE5=buddha knows
TTITLE6=forever,forever
TTITLE7=rainbow
TTITLE8=chu chu chu
TTITLE9=innocence
TTITLE10=migratory bird
TTITLE11=people life, ocean wild
EXTD=YEAR: 2001
EXTT0=
EXTT1=
EXTT2=
EXTT3=
EXTT4=
EXTT5=
EXTT6=
EXTT7=
EXTT8=
EXTT9=
EXTT10=
EXTT11=
PLAYORDER=
